<?xml version="1.0" ?><!DOCTYPE svg  PUBLIC '-//W3C//DTD SVG 1.1//EN'  'http://www.w3.org/Graphics/SVG/1.1/DTD/svg11.dtd'><svg xmlns="http://www.w3.org/2000/svg" width="1360.000" height="598.000" viewBox="20.000 89.000 1360.000 598.000"><text x="700.0" y="673" fill="#000" stroke-width="0.0" text-anchor="middle" font-family=".AppleSystemUIFont" font-size="20.0pt">Yellow=Target Mesh, Red=Current Mesh, Dark Red=Subgrid of current mesh, Orange=Subgrid of target mesh</text><line x1="540.7054062363281" y1="185.66371630458536" x2="606.6915043354659" y2="224.14842761822183" stroke="#000" fill="none"/><line x1="540.7054062363281" y1="185.66371630458536" x2="606.6915043354659" y2="224.14842761822183" stroke="#000" fill="none" stroke-width="2.0"/><line x1="540.7054062363281" y1="185.66371630458536" x2="564.3846586369514" y2="251.09788639058368" stroke="#000" fill="none"/><line x1="540.7054062363281" y1="185.66371630458536" x2="564.3846586369514" y2="251.09788639058368" stroke="#000" fill="none" stroke-width="2.0"/><line x1="606.6915043354659" y1="224.14842761822183" x2="693.086562763253" y2="198.3971385774289" stroke="#000" fill="none"/><line x1="606.6915043354659" y1="224.14842761822183" x2="693.086562763253" y2="198.3971385774289" stroke="#000" fill="none" stroke-width="2.0"/><line x1="606.6915043354659" y1="224.14842761822183" x2="621.2392671088934" y2="255.1353517456891" stroke="#000" fill="none"/><line x1="606.6915043354659" y1="224.14842761822183" x2="615.1188331204512" y2="258.81810566086705" stroke="#000" fill="none" stroke-width="2.0"/><line x1="693.086562763253" y1="198.3971385774289" x2="762.2314216251517" y2="234.99662455254636" stroke="#000" fill="none"/><line x1="693.086562763253" y1="198.3971385774289" x2="762.2314216251517" y2="234.99662455254636" stroke="#000" fill="none" stroke-width="2.0"/><line x1="693.086562763253" y1="198.3971385774289" x2="712.8503901859008" y2="258.1591869501372" stroke="#000" fill="none"/><line x1="693.086562763253" y1="198.3971385774289" x2="708.7238979440519" y2="255.4427577319306" stroke="#000" fill="none" stroke-width="2.0"/><line x1="762.2314216251517" y1="234.99662455254636" x2="821.8652547742653" y2="189.85151804628944" stroke="#000" fill="none"/><line x1="762.2314216251517" y1="234.99662455254636" x2="821.8652547742653" y2="189.85151804628944" stroke="#000" fill="none" stroke-width="2.0"/><line x1="762.2314216251517" y1="234.99662455254636" x2="793.7377035734609" y2="255.2508689983978" stroke="#000" fill="none"/><line x1="762.2314216251517" y1="234.99662455254636" x2="794.0188981767169" y2="256.8319706396285" stroke="#000" fill="none" stroke-width="2.0"/><line x1="821.8652547742653" y1="189.85151804628944" x2="850.2324687990506" y2="258.8348691662977" stroke="#000" fill="none"/><line x1="821.8652547742653" y1="189.85151804628944" x2="850.2324687990506" y2="258.8348691662977" stroke="#000" fill="none" stroke-width="2.0"/><line x1="564.3846586369514" y1="251.09788639058368" x2="621.2392671088934" y2="255.1353517456891" stroke="#000" fill="none"/><line x1="564.3846586369514" y1="251.09788639058368" x2="615.1188331204512" y2="258.81810566086705" stroke="#000" fill="none" stroke-width="2.0"/><line x1="564.3846586369514" y1="251.09788639058368" x2="549.2308861340075" y2="376.0491341679961" stroke="#000" fill="none"/><line x1="564.3846586369514" y1="251.09788639058368" x2="549.2308861340075" y2="376.0491341679961" stroke="#000" fill="none" stroke-width="2.0"/><line x1="621.2392671088934" y1="255.1353517456891" x2="712.8503901859008" y2="258.1591869501372" stroke="#000" fill="none"/><line x1="615.1188331204512" y1="258.81810566086705" x2="708.7238979440519" y2="255.4427577319306" stroke="#000" fill="none" stroke-width="2.0"/><line x1="621.2392671088934" y1="255.1353517456891" x2="609.0912713406597" y2="355.41993327086806" stroke="#000" fill="none"/><line x1="615.1188331204512" y1="258.81810566086705" x2="614.6152915045138" y2="359.28685934277763" stroke="#000" fill="none" stroke-width="2.0"/><line x1="712.8503901859008" y1="258.1591869501372" x2="793.7377035734609" y2="255.2508689983978" stroke="#000" fill="none"/><line x1="708.7238979440519" y1="255.4427577319306" x2="794.0188981767169" y2="256.8319706396285" stroke="#000" fill="none" stroke-width="2.0"/><line x1="712.8503901859008" y1="258.1591869501372" x2="714.6084890662297" y2="377.35122974437263" stroke="#000" fill="none"/><line x1="708.7238979440519" y1="255.4427577319306" x2="709.3236020843983" y2="387.1717145514361" stroke="#000" fill="none" stroke-width="2.0"/><line x1="793.7377035734609" y1="255.2508689983978" x2="850.2324687990506" y2="258.8348691662977" stroke="#000" fill="none"/><line x1="794.0188981767169" y1="256.8319706396285" x2="850.2324687990506" y2="258.8348691662977" stroke="#000" fill="none" stroke-width="2.0"/><line x1="793.7377035734609" y1="255.2508689983978" x2="754.3135572967003" y2="358.99520477406895" stroke="#000" fill="none"/><line x1="794.0188981767169" y1="256.8319706396285" x2="749.0143124032509" y2="348.7061981161818" stroke="#000" fill="none" stroke-width="2.0"/><line x1="850.2324687990506" y1="258.8348691662977" x2="820.0177229973782" y2="358.74984391861386" stroke="#000" fill="none"/><line x1="850.2324687990506" y1="258.8348691662977" x2="820.0177229973782" y2="358.74984391861386" stroke="#000" fill="none" stroke-width="2.0"/><line x1="549.2308861340075" y1="376.0491341679961" x2="609.0912713406597" y2="355.41993327086806" stroke="#000" fill="none"/><line x1="549.2308861340075" y1="376.0491341679961" x2="614.6152915045138" y2="359.28685934277763" stroke="#000" fill="none" stroke-width="2.0"/><line x1="549.2308861340075" y1="376.0491341679961" x2="564.2720244704427" y2="401.14450108746945" stroke="#000" fill="none"/><line x1="549.2308861340075" y1="376.0491341679961" x2="564.2720244704427" y2="401.14450108746945" stroke="#000" fill="none" stroke-width="2.0"/><line x1="609.0912713406597" y1="355.41993327086806" x2="714.6084890662297" y2="377.35122974437263" stroke="#000" fill="none"/><line x1="614.6152915045138" y1="359.28685934277763" x2="709.3236020843983" y2="387.1717145514361" stroke="#000" fill="none" stroke-width="2.0"/><line x1="609.0912713406597" y1="355.41993327086806" x2="634.5873385939572" y2="397.30436791745205" stroke="#000" fill="none"/><line x1="614.6152915045138" y1="359.28685934277763" x2="637.6384384381353" y2="400.5681666249371" stroke="#000" fill="none" stroke-width="2.0"/><line x1="714.6084890662297" y1="377.35122974437263" x2="754.3135572967003" y2="358.99520477406895" stroke="#000" fill="none"/><line x1="709.3236020843983" y1="387.1717145514361" x2="749.0143124032509" y2="348.7061981161818" stroke="#000" fill="none" stroke-width="2.0"/><line x1="714.6084890662297" y1="377.35122974437263" x2="706.8205356947038" y2="413.005858266804" stroke="#000" fill="none"/><line x1="709.3236020843983" y1="387.1717145514361" x2="732.2945001243994" y2="430.3361802382414" stroke="#000" fill="none" stroke-width="2.0"/><line x1="754.3135572967003" y1="358.99520477406895" x2="820.0177229973782" y2="358.74984391861386" stroke="#000" fill="none"/><line x1="749.0143124032509" y1="348.7061981161818" x2="820.0177229973782" y2="358.74984391861386" stroke="#000" fill="none" stroke-width="2.0"/><line x1="754.3135572967003" y1="358.99520477406895" x2="743.0123478138582" y2="448.61727673424434" stroke="#000" fill="none"/><line x1="749.0143124032509" y1="348.7061981161818" x2="758.5404942360115" y2="446.4170415153959" stroke="#000" fill="none" stroke-width="2.0"/><line x1="820.0177229973782" y1="358.74984391861386" x2="861.8022207811198" y2="407.31750711599585" stroke="#000" fill="none"/><line x1="820.0177229973782" y1="358.74984391861386" x2="861.8022207811198" y2="407.31750711599585" stroke="#000" fill="none" stroke-width="2.0"/><line x1="564.2720244704427" y1="401.14450108746945" x2="634.5873385939572" y2="397.30436791745205" stroke="#000" fill="none"/><line x1="564.2720244704427" y1="401.14450108746945" x2="637.6384384381353" y2="400.5681666249371" stroke="#000" fill="none" stroke-width="2.0"/><line x1="564.2720244704427" y1="401.14450108746945" x2="582.2368514329801" y2="517.540794312393" stroke="#000" fill="none"/><line x1="564.2720244704427" y1="401.14450108746945" x2="582.2368514329801" y2="517.540794312393" stroke="#000" fill="none" stroke-width="2.0"/><line x1="634.5873385939572" y1="397.30436791745205" x2="706.8205356947038" y2="413.005858266804" stroke="#000" fill="none"/><line x1="637.6384384381353" y1="400.5681666249371" x2="732.2945001243994" y2="430.3361802382414" stroke="#000" fill="none" stroke-width="2.0"/><line x1="634.5873385939572" y1="397.30436791745205" x2="636.5296235830465" y2="514.6935007350806" stroke="#000" fill="none"/><line x1="637.6384384381353" y1="400.5681666249371" x2="636.5296235830465" y2="514.6935007350806" stroke="#000" fill="none" stroke-width="2.0"/><line x1="706.8205356947038" y1="413.005858266804" x2="743.0123478138582" y2="448.61727673424434" stroke="#000" fill="none"/><line x1="732.2945001243994" y1="430.3361802382414" x2="758.5404942360115" y2="446.4170415153959" stroke="#000" fill="none" stroke-width="2.0"/><line x1="706.8205356947038" y1="413.005858266804" x2="698.6186640449923" y2="466.9553940378402" stroke="#000" fill="none"/><line x1="732.2945001243994" y1="430.3361802382414" x2="698.6186640449923" y2="466.9553940378402" stroke="#000" fill="none" stroke-width="2.0"/><line x1="743.0123478138582" y1="448.61727673424434" x2="861.8022207811198" y2="407.31750711599585" stroke="#000" fill="none"/><line x1="758.5404942360115" y1="446.4170415153959" x2="861.8022207811198" y2="407.31750711599585" stroke="#000" fill="none" stroke-width="2.0"/><line x1="743.0123478138582" y1="448.61727673424434" x2="789.3688914603433" y2="509.4676123189105" stroke="#000" fill="none"/><line x1="758.5404942360115" y1="446.4170415153959" x2="789.3688914603433" y2="509.4676123189105" stroke="#000" fill="none" stroke-width="2.0"/><line x1="861.8022207811198" y1="407.31750711599585" x2="811.665692488707" y2="466.96694630572296" stroke="#000" fill="none"/><line x1="861.8022207811198" y1="407.31750711599585" x2="820.3755845843824" y2="475.7528111033828" stroke="#000" fill="none" stroke-width="2.0"/><line x1="582.2368514329801" y1="517.540794312393" x2="636.5296235830465" y2="514.6935007350806" stroke="#000" fill="none"/><line x1="582.2368514329801" y1="517.540794312393" x2="636.5296235830465" y2="514.6935007350806" stroke="#000" fill="none" stroke-width="2.0"/><line x1="636.5296235830465" y1="514.6935007350806" x2="698.6186640449923" y2="466.9553940378402" stroke="#000" fill="none"/><line x1="636.5296235830465" y1="514.6935007350806" x2="698.6186640449923" y2="466.9553940378402" stroke="#000" fill="none" stroke-width="2.0"/><line x1="698.6186640449923" y1="466.9553940378402" x2="789.3688914603433" y2="509.4676123189105" stroke="#000" fill="none"/><line x1="698.6186640449923" y1="466.9553940378402" x2="789.3688914603433" y2="509.4676123189105" stroke="#000" fill="none" stroke-width="2.0"/><line x1="789.3688914603433" y1="509.4676123189105" x2="811.665692488707" y2="466.96694630572296" stroke="#000" fill="none"/><line x1="789.3688914603433" y1="509.4676123189105" x2="820.3755845843824" y2="475.7528111033828" stroke="#000" fill="none" stroke-width="2.0"/><circle cx="540.7054062363281" cy="185.66371630458536" r="5.0" stroke="#000" fill="#ff0"/><circle cx="540.7054062363281" cy="185.66371630458536" r="5.0" stroke="#000" fill="#f00"/><circle cx="606.6915043354659" cy="224.14842761822183" r="5.0" stroke="#000" fill="#ff0"/><circle cx="606.6915043354659" cy="224.14842761822183" r="5.0" stroke="#000" fill="#f00"/><circle cx="693.086562763253" cy="198.3971385774289" r="5.0" stroke="#000" fill="#ff0"/><circle cx="693.086562763253" cy="198.3971385774289" r="5.0" stroke="#000" fill="#f00"/><circle cx="762.2314216251517" cy="234.99662455254636" r="5.0" stroke="#000" fill="#ff0"/><circle cx="762.2314216251517" cy="234.99662455254636" r="5.0" stroke="#000" fill="#f00"/><circle cx="821.8652547742653" cy="189.85151804628944" r="5.0" stroke="#000" fill="#ff0"/><circle cx="821.8652547742653" cy="189.85151804628944" r="5.0" stroke="#000" fill="#f00"/><ellipse cx="564.3846586369514" cy="251.09788639058365" rx="5.0" ry="4.999999999999986" stroke="#000" fill="#ffa500"/><ellipse cx="564.3846586369514" cy="251.09788639058365" rx="7.0" ry="6.999999999999986" stroke="#000" fill="#8b0000"/><circle cx="621.2392671088934" cy="255.1353517456891" r="5.0" stroke="#000" fill="#ffa500"/><circle cx="615.1188331204512" cy="258.81810566086705" r="7.0" stroke="#000" fill="#8b0000"/><circle cx="712.8503901859008" cy="258.1591869501372" r="5.0" stroke="#000" fill="#ffa500"/><circle cx="708.7238979440519" cy="255.4427577319306" r="7.0" stroke="#000" fill="#8b0000"/><ellipse cx="793.7377035734609" cy="255.25086899839778" rx="5.0" ry="4.999999999999986" stroke="#000" fill="#ffa500"/><circle cx="794.0188981767169" cy="256.8319706396285" r="7.0" stroke="#000" fill="#8b0000"/><circle cx="850.2324687990506" cy="258.8348691662977" r="5.0" stroke="#000" fill="#ff0"/><circle cx="850.2324687990506" cy="258.8348691662977" r="5.0" stroke="#000" fill="#f00"/><circle cx="549.2308861340075" cy="376.0491341679961" r="5.0" stroke="#000" fill="#ffa500"/><circle cx="549.2308861340075" cy="376.0491341679961" r="7.0" stroke="#000" fill="#8b0000"/><circle cx="609.0912713406597" cy="355.41993327086806" r="5.0" stroke="#000" fill="#ffa500"/><circle cx="614.6152915045138" cy="359.28685934277763" r="7.0" stroke="#000" fill="#8b0000"/><circle cx="714.6084890662297" cy="377.35122974437263" r="5.0" stroke="#000" fill="#ffa500"/><circle cx="709.3236020843983" cy="387.1717145514361" r="7.0" stroke="#000" fill="#8b0000"/><circle cx="754.3135572967003" cy="358.99520477406895" r="5.0" stroke="#000" fill="#ffa500"/><circle cx="749.0143124032509" cy="348.7061981161818" r="7.0" stroke="#000" fill="#8b0000"/><circle cx="820.0177229973782" cy="358.74984391861386" r="5.0" stroke="#000" fill="#ff0"/><circle cx="820.0177229973782" cy="358.74984391861386" r="5.0" stroke="#000" fill="#f00"/><circle cx="564.2720244704427" cy="401.14450108746945" r="5.0" stroke="#000" fill="#ffa500"/><circle cx="564.2720244704427" cy="401.14450108746945" r="7.0" stroke="#000" fill="#8b0000"/><circle cx="634.5873385939572" cy="397.30436791745205" r="5.0" stroke="#000" fill="#ffa500"/><circle cx="637.6384384381353" cy="400.5681666249371" r="7.0" stroke="#000" fill="#8b0000"/><circle cx="706.8205356947038" cy="413.005858266804" r="5.0" stroke="#000" fill="#ffa500"/><circle cx="732.2945001243994" cy="430.3361802382414" r="7.0" stroke="#000" fill="#8b0000"/><circle cx="743.0123478138582" cy="448.61727673424434" r="5.0" stroke="#000" fill="#ffa500"/><circle cx="758.5404942360115" cy="446.4170415153959" r="7.0" stroke="#000" fill="#8b0000"/><circle cx="861.8022207811198" cy="407.31750711599585" r="5.0" stroke="#000" fill="#ff0"/><circle cx="861.8022207811198" cy="407.31750711599585" r="5.0" stroke="#000" fill="#f00"/><circle cx="582.2368514329801" cy="517.540794312393" r="5.0" stroke="#000" fill="#ffa500"/><circle cx="582.2368514329801" cy="517.540794312393" r="7.0" stroke="#000" fill="#8b0000"/><circle cx="636.5296235830465" cy="514.6935007350806" r="5.0" stroke="#000" fill="#ffa500"/><circle cx="636.5296235830465" cy="514.6935007350806" r="7.0" stroke="#000" fill="#8b0000"/><circle cx="698.6186640449923" cy="466.9553940378402" r="5.0" stroke="#000" fill="#ffa500"/><circle cx="698.6186640449923" cy="466.9553940378402" r="7.0" stroke="#000" fill="#8b0000"/><circle cx="789.3688914603433" cy="509.4676123189105" r="5.0" stroke="#000" fill="#ffa500"/><circle cx="789.3688914603433" cy="509.4676123189105" r="7.0" stroke="#000" fill="#8b0000"/><circle cx="811.665692488707" cy="466.96694630572296" r="5.0" stroke="#000" fill="#ff0"/><circle cx="820.3755845843824" cy="475.7528111033828" r="5.0" stroke="#000" fill="#f00"/><text x="233.33333333333334" y="598" fill="#000" stroke-width="0.0" text-anchor="middle" font-family=".AppleSystemUIFont" font-size="20.0pt">Cone #5 for GENERATED Mesh</text><text x="233.33333333333334" y="118" fill="#000" stroke-width="0.0" text-anchor="middle" font-family=".AppleSystemUIFont" font-size="20.0pt">TRANSVERSE</text><circle cx="233.33333333333337" cy="350.0" r="200.0" stroke="#000" fill="none"/><line x1="35.60945075901512" y1="319.9123570258949" x2="431.05721590765154" y2="380.0876429741051" stroke="#f00" fill="none" stroke-width="2.0"/><line x1="33.46323511816823" y1="357.2072074661582" x2="433.20343154849843" y2="342.7927925338418" stroke="#f00" fill="none" stroke-width="2.0"/><line x1="33.35985519932393" y1="346.74300092311137" x2="433.30681146734275" y2="353.25699907688863" stroke="#f00" fill="none" stroke-width="2.0"/><line x1="39.598452089760656" y1="399.6668479927889" x2="427.06821457690603" y2="300.3331520072111" stroke="#f00" fill="none" stroke-width="2.0"/><line x1="41.47640139574574" y1="293.5117917836309" x2="425.1902652709209" y2="406.4882082163691" stroke="#f00" fill="none" stroke-width="2.0"/><line x1="89.71267124008423" y1="489.1873033717399" x2="376.9539954265824" y2="210.81269662826008" stroke="#f00" fill="none" stroke-width="2.0"/><line x1="33.33950403422057" y1="351.5710640589528" x2="433.3271626324461" y2="348.4289359410472" stroke="#f00" fill="none" stroke-width="2.0"/><line x1="42.54552729172329" y1="289.9998911181906" x2="424.12113937494337" y2="410.0001088818094" stroke="#f00" fill="none" stroke-width="2.0"/><line x1="62.79747193524142" y1="245.51306312648086" x2="403.8691947314253" y2="454.48693687351914" stroke="#f00" fill="none" stroke-width="2.0"/><line x1="33.607797567763214" y1="360.47427148569136" x2="433.0588690989035" y2="339.52572851430864" stroke="#f00" fill="none" stroke-width="2.0"/><line x1="74.78053346999883" y1="471.9057408635762" x2="391.88613319666786" y2="228.09425913642377" stroke="#f00" fill="none" stroke-width="2.0"/><line x1="52.22088099208429" y1="265.1573243765922" x2="414.4457856745824" y2="434.8426756234078" stroke="#f00" fill="none" stroke-width="2.0"/><line x1="209.25427102521974" y1="548.5452058307176" x2="257.41239564144695" y2="151.45479416928248" stroke="#00f" fill="none"/><line x1="232.3309614051871" y1="549.9974881105202" x2="234.33570526147957" y2="150.00251188947982" stroke="#00f" fill="none"/><line x1="234.24383614189432" y1="549.9979274508504" x2="232.42283052477237" y2="150.00207254914963" stroke="#00f" fill="none"/><line x1="145.35201671294277" y1="529.6087078227072" x2="321.3146499537239" y2="170.39129217729285" stroke="#00f" fill="none"/><line x1="336.1516405091262" y1="521.5470655811527" x2="130.5150261575405" y2="178.45293441884732" stroke="#00f" fill="none"/><line x1="330.7498344728991" y1="524.6711919743063" x2="135.91683219376756" y2="175.3288080256937" stroke="#00f" fill="none"/><line x1="327.2912385878735" y1="526.5556910444375" x2="139.37542807879316" y2="173.44430895556255" stroke="#00f" fill="none"/><line x1="252.74004096273788" y1="549.056222457342" x2="213.9266257039288" y2="150.94377754265804" stroke="#00f" fill="none"/><line x1="263.840493132017" y1="547.6595891957119" x2="202.82617353464968" y2="152.34041080428813" stroke="#00f" fill="none"/><line x1="231.39027216544736" y1="549.9905610605107" x2="235.27639450121933" y2="150.0094389394893" stroke="#00f" fill="none"/><line x1="97.9521648900384" y1="497.21392335960684" x2="368.71450177662825" y2="202.78607664039313" stroke="#00f" fill="none"/><line x1="321.1838089937283" y1="529.6727411886465" x2="145.4828576729384" y2="170.32725881135354" stroke="#00f" fill="none"/><text x="1166.6666666666667" y="598" fill="#000" stroke-width="0.0" text-anchor="middle" font-family=".AppleSystemUIFont" font-size="20.0pt">Cone #5 for TARGET Mesh</text><text x="1166.6666666666667" y="118" fill="#000" stroke-width="0.0" text-anchor="middle" font-family=".AppleSystemUIFont" font-size="20.0pt">TRANSVERSE</text><circle cx="1166.6666666666667" cy="350.0" r="200.0" stroke="#000" fill="none"/><line x1="967.1690641504849" y1="335.832904662721" x2="1366.1642691828486" y2="364.167095337279" stroke="#f00" fill="none" stroke-width="2.0"/><line x1="966.7755258654585" y1="343.4021344973153" x2="1366.5578074678751" y2="356.5978655026847" stroke="#f00" fill="none" stroke-width="2.0"/><line x1="966.795818956875" y1="357.1863924029545" x2="1366.5375143764586" y2="342.8136075970455" stroke="#f00" fill="none" stroke-width="2.0"/><line x1="977.580088716948" y1="415.16337958750273" x2="1355.7532446163855" y2="284.83662041249727" stroke="#f00" fill="none" stroke-width="2.0"/><line x1="970.8515373881363" y1="309.3006738921586" x2="1362.481795945197" y2="390.6993261078414" stroke="#f00" fill="none" stroke-width="2.0"/><line x1="985.1280753570593" y1="433.92699128006035" x2="1348.2052579762742" y2="266.07300871993965" stroke="#f00" fill="none" stroke-width="2.0"/><line x1="966.9642595653997" y1="360.90635585151193" x2="1366.3690737679337" y2="339.09364414848807" stroke="#f00" fill="none" stroke-width="2.0"/><line x1="971.2306196495322" y1="307.51763275997496" x2="1362.1027136838013" y2="392.48236724002504" stroke="#f00" fill="none" stroke-width="2.0"/><line x1="1024.1068426964907" y1="209.72635105055403" x2="1309.2264906368428" y2="490.27364894944594" stroke="#f00" fill="none" stroke-width="2.0"/><line x1="966.9411309010966" y1="360.47427148569136" x2="1366.392202432237" y2="339.52572851430864" stroke="#f00" fill="none" stroke-width="2.0"/><line x1="1008.1138668033323" y1="471.9057408635762" x2="1325.2194665300012" y2="228.09425913642377" stroke="#f00" fill="none" stroke-width="2.0"/><line x1="985.5542143254177" y1="265.1573243765922" x2="1347.7791190079158" y2="434.8426756234078" stroke="#f00" fill="none" stroke-width="2.0"/><line x1="1142.587604358553" y1="548.5452058307176" x2="1190.7457289747804" y2="151.45479416928248" stroke="#00f" fill="none"/><line x1="1142.6154389740593" y1="548.5485795629834" x2="1190.7178943592742" y2="151.4514204370166" stroke="#00f" fill="none"/><line x1="1169.6163730708708" y1="549.9782468973287" x2="1163.7169602624626" y2="150.0217531026712" stroke="#00f" fill="none"/><line x1="1095.62106951544" y1="536.9559389947952" x2="1237.7122638178935" y2="163.04406100520475" stroke="#00f" fill="none"/><line x1="1269.4849738424596" y1="521.5470655811527" x2="1063.848359490874" y2="178.45293441884732" stroke="#00f" fill="none"/><line x1="1270.6596094641245" y1="520.8375481219649" x2="1062.673723869209" y2="179.16245187803506" stroke="#00f" fill="none"/><line x1="1123.9874191267243" y1="545.3931468333122" x2="1209.3459142066092" y2="154.60685316668776" stroke="#00f" fill="none"/><line x1="1141.6451124484272" y1="548.4286315643579" x2="1191.6882208849063" y2="151.57136843564209" stroke="#00f" fill="none"/><line x1="1197.1738264653504" y1="547.6595891957119" x2="1136.159506867983" y2="152.34041080428813" stroke="#00f" fill="none"/><line x1="1169.975353147269" y1="549.9726296115873" x2="1163.3579801860644" y2="150.0273703884127" stroke="#00f" fill="none"/><line x1="1136.6063524059662" y1="547.7280392522717" x2="1196.7269809273673" y2="152.27196074772823" stroke="#00f" fill="none"/><line x1="1287.8660180529607" y1="509.09342294243856" x2="1045.4673152803728" y2="190.90657705756146" stroke="#00f" fill="none"/></svg>