<?xml version="1.0" ?><!DOCTYPE svg  PUBLIC '-//W3C//DTD SVG 1.1//EN'  'http://www.w3.org/Graphics/SVG/1.1/DTD/svg11.dtd'><svg xmlns="http://www.w3.org/2000/svg" width="983.000" height="519.000" viewBox="209.000 168.000 983.000 519.000"><text x="700.0" y="673" fill="#000" stroke-width="0.0" text-anchor="middle" font-family=".AppleSystemUIFont" font-size="20.0pt">Yellow=Target Mesh, Red=Current Mesh, Dark Red=Subgrid of current mesh, Orange=Subgrid of target mesh</text><line x1="540.7054062363281" y1="185.66371630458536" x2="606.6915043354659" y2="224.14842761822183" stroke="#000" fill="none"/><line x1="540.7054062363281" y1="185.66371630458536" x2="606.6915043354659" y2="224.14842761822183" stroke="#000" fill="none" stroke-width="2.0"/><line x1="540.7054062363281" y1="185.66371630458536" x2="564.3846586369514" y2="251.09788639058368" stroke="#000" fill="none"/><line x1="540.7054062363281" y1="185.66371630458536" x2="564.3846586369514" y2="251.09788639058368" stroke="#000" fill="none" stroke-width="2.0"/><line x1="606.6915043354659" y1="224.14842761822183" x2="693.086562763253" y2="198.3971385774289" stroke="#000" fill="none"/><line x1="606.6915043354659" y1="224.14842761822183" x2="693.086562763253" y2="198.3971385774289" stroke="#000" fill="none" stroke-width="2.0"/><line x1="606.6915043354659" y1="224.14842761822183" x2="621.2392671088934" y2="255.1353517456891" stroke="#000" fill="none"/><line x1="606.6915043354659" y1="224.14842761822183" x2="602.3654552767614" y2="246.0870561671642" stroke="#000" fill="none" stroke-width="2.0"/><line x1="693.086562763253" y1="198.3971385774289" x2="762.2314216251517" y2="234.99662455254636" stroke="#000" fill="none"/><line x1="693.086562763253" y1="198.3971385774289" x2="762.2314216251517" y2="234.99662455254636" stroke="#000" fill="none" stroke-width="2.0"/><line x1="693.086562763253" y1="198.3971385774289" x2="712.8503901859008" y2="258.1591869501372" stroke="#000" fill="none"/><line x1="693.086562763253" y1="198.3971385774289" x2="725.4612503825754" y2="251.95715119447826" stroke="#000" fill="none" stroke-width="2.0"/><line x1="762.2314216251517" y1="234.99662455254636" x2="821.8652547742653" y2="189.85151804628944" stroke="#000" fill="none"/><line x1="762.2314216251517" y1="234.99662455254636" x2="821.8652547742653" y2="189.85151804628944" stroke="#000" fill="none" stroke-width="2.0"/><line x1="762.2314216251517" y1="234.99662455254636" x2="793.7377035734609" y2="255.2508689983978" stroke="#000" fill="none"/><line x1="762.2314216251517" y1="234.99662455254636" x2="792.4468177565578" y2="259.9862000420233" stroke="#000" fill="none" stroke-width="2.0"/><line x1="821.8652547742653" y1="189.85151804628944" x2="850.2324687990506" y2="258.8348691662977" stroke="#000" fill="none"/><line x1="821.8652547742653" y1="189.85151804628944" x2="850.2324687990506" y2="258.8348691662977" stroke="#000" fill="none" stroke-width="2.0"/><line x1="564.3846586369514" y1="251.09788639058368" x2="621.2392671088934" y2="255.1353517456891" stroke="#000" fill="none"/><line x1="564.3846586369514" y1="251.09788639058368" x2="602.3654552767614" y2="246.0870561671642" stroke="#000" fill="none" stroke-width="2.0"/><line x1="564.3846586369514" y1="251.09788639058368" x2="549.2308861340075" y2="376.0491341679961" stroke="#000" fill="none"/><line x1="564.3846586369514" y1="251.09788639058368" x2="549.2308861340075" y2="376.0491341679961" stroke="#000" fill="none" stroke-width="2.0"/><line x1="621.2392671088934" y1="255.1353517456891" x2="712.8503901859008" y2="258.1591869501372" stroke="#000" fill="none"/><line x1="602.3654552767614" y1="246.0870561671642" x2="725.4612503825754" y2="251.95715119447826" stroke="#000" fill="none" stroke-width="2.0"/><line x1="621.2392671088934" y1="255.1353517456891" x2="609.0912713406597" y2="355.41993327086806" stroke="#000" fill="none"/><line x1="602.3654552767614" y1="246.0870561671642" x2="626.3133857234026" y2="395.5626650861424" stroke="#000" fill="none" stroke-width="2.0"/><line x1="712.8503901859008" y1="258.1591869501372" x2="793.7377035734609" y2="255.2508689983978" stroke="#000" fill="none"/><line x1="725.4612503825754" y1="251.95715119447826" x2="792.4468177565578" y2="259.9862000420233" stroke="#000" fill="none" stroke-width="2.0"/><line x1="712.8503901859008" y1="258.1591869501372" x2="714.6084890662297" y2="377.35122974437263" stroke="#000" fill="none"/><line x1="725.4612503825754" y1="251.95715119447826" x2="702.0858750661839" y2="372.3527813624122" stroke="#000" fill="none" stroke-width="2.0"/><line x1="793.7377035734609" y1="255.2508689983978" x2="850.2324687990506" y2="258.8348691662977" stroke="#000" fill="none"/><line x1="792.4468177565578" y1="259.9862000420233" x2="850.2324687990506" y2="258.8348691662977" stroke="#000" fill="none" stroke-width="2.0"/><line x1="793.7377035734609" y1="255.2508689983978" x2="754.3135572967003" y2="358.99520477406895" stroke="#000" fill="none"/><line x1="792.4468177565578" y1="259.9862000420233" x2="757.8368060802787" y2="368.67921608896546" stroke="#000" fill="none" stroke-width="2.0"/><line x1="850.2324687990506" y1="258.8348691662977" x2="820.0177229973782" y2="358.74984391861386" stroke="#000" fill="none"/><line x1="850.2324687990506" y1="258.8348691662977" x2="820.0177229973782" y2="358.74984391861386" stroke="#000" fill="none" stroke-width="2.0"/><line x1="549.2308861340075" y1="376.0491341679961" x2="609.0912713406597" y2="355.41993327086806" stroke="#000" fill="none"/><line x1="549.2308861340075" y1="376.0491341679961" x2="626.3133857234026" y2="395.5626650861424" stroke="#000" fill="none" stroke-width="2.0"/><line x1="549.2308861340075" y1="376.0491341679961" x2="564.2720244704427" y2="401.14450108746945" stroke="#000" fill="none"/><line x1="549.2308861340075" y1="376.0491341679961" x2="564.2720244704427" y2="401.14450108746945" stroke="#000" fill="none" stroke-width="2.0"/><line x1="609.0912713406597" y1="355.41993327086806" x2="714.6084890662297" y2="377.35122974437263" stroke="#000" fill="none"/><line x1="626.3133857234026" y1="395.5626650861424" x2="702.0858750661839" y2="372.3527813624122" stroke="#000" fill="none" stroke-width="2.0"/><line x1="609.0912713406597" y1="355.41993327086806" x2="634.5873385939572" y2="397.30436791745205" stroke="#000" fill="none"/><line x1="626.3133857234026" y1="395.5626650861424" x2="634.4127673131812" y2="440.3441706330486" stroke="#000" fill="none" stroke-width="2.0"/><line x1="714.6084890662297" y1="377.35122974437263" x2="754.3135572967003" y2="358.99520477406895" stroke="#000" fill="none"/><line x1="702.0858750661839" y1="372.3527813624122" x2="757.8368060802787" y2="368.67921608896546" stroke="#000" fill="none" stroke-width="2.0"/><line x1="714.6084890662297" y1="377.35122974437263" x2="706.8205356947038" y2="413.005858266804" stroke="#000" fill="none"/><line x1="702.0858750661839" y1="372.3527813624122" x2="736.2327263511194" y2="443.81329076822317" stroke="#000" fill="none" stroke-width="2.0"/><line x1="754.3135572967003" y1="358.99520477406895" x2="820.0177229973782" y2="358.74984391861386" stroke="#000" fill="none"/><line x1="757.8368060802787" y1="368.67921608896546" x2="820.0177229973782" y2="358.74984391861386" stroke="#000" fill="none" stroke-width="2.0"/><line x1="754.3135572967003" y1="358.99520477406895" x2="743.0123478138582" y2="448.61727673424434" stroke="#000" fill="none"/><line x1="757.8368060802787" y1="368.67921608896546" x2="777.7337660652388" y2="455.2366645802249" stroke="#000" fill="none" stroke-width="2.0"/><line x1="820.0177229973782" y1="358.74984391861386" x2="861.8022207811198" y2="407.31750711599585" stroke="#000" fill="none"/><line x1="820.0177229973782" y1="358.74984391861386" x2="861.8022207811198" y2="407.31750711599585" stroke="#000" fill="none" stroke-width="2.0"/><line x1="564.2720244704427" y1="401.14450108746945" x2="634.5873385939572" y2="397.30436791745205" stroke="#000" fill="none"/><line x1="564.2720244704427" y1="401.14450108746945" x2="634.4127673131812" y2="440.3441706330486" stroke="#000" fill="none" stroke-width="2.0"/><line x1="564.2720244704427" y1="401.14450108746945" x2="582.2368514329801" y2="517.540794312393" stroke="#000" fill="none"/><line x1="564.2720244704427" y1="401.14450108746945" x2="582.2368514329801" y2="517.540794312393" stroke="#000" fill="none" stroke-width="2.0"/><line x1="634.5873385939572" y1="397.30436791745205" x2="706.8205356947038" y2="413.005858266804" stroke="#000" fill="none"/><line x1="634.4127673131812" y1="440.3441706330486" x2="736.2327263511194" y2="443.81329076822317" stroke="#000" fill="none" stroke-width="2.0"/><line x1="634.5873385939572" y1="397.30436791745205" x2="636.5296235830465" y2="514.6935007350806" stroke="#000" fill="none"/><line x1="634.4127673131812" y1="440.3441706330486" x2="636.5296235830465" y2="514.6935007350806" stroke="#000" fill="none" stroke-width="2.0"/><line x1="706.8205356947038" y1="413.005858266804" x2="743.0123478138582" y2="448.61727673424434" stroke="#000" fill="none"/><line x1="736.2327263511194" y1="443.81329076822317" x2="777.7337660652388" y2="455.2366645802249" stroke="#000" fill="none" stroke-width="2.0"/><line x1="706.8205356947038" y1="413.005858266804" x2="698.6186640449923" y2="466.9553940378402" stroke="#000" fill="none"/><line x1="736.2327263511194" y1="443.81329076822317" x2="699.9362387768581" y2="492.24809417511665" stroke="#000" fill="none" stroke-width="2.0"/><line x1="743.0123478138582" y1="448.61727673424434" x2="861.8022207811198" y2="407.31750711599585" stroke="#000" fill="none"/><line x1="777.7337660652388" y1="455.2366645802249" x2="861.8022207811198" y2="407.31750711599585" stroke="#000" fill="none" stroke-width="2.0"/><line x1="743.0123478138582" y1="448.61727673424434" x2="789.3688914603433" y2="509.4676123189105" stroke="#000" fill="none"/><line x1="777.7337660652388" y1="455.2366645802249" x2="789.3688914603433" y2="509.4676123189105" stroke="#000" fill="none" stroke-width="2.0"/><line x1="861.8022207811198" y1="407.31750711599585" x2="811.665692488707" y2="466.96694630572296" stroke="#000" fill="none"/><line x1="861.8022207811198" y1="407.31750711599585" x2="836.7339566349134" y2="492.253870309058" stroke="#000" fill="none" stroke-width="2.0"/><line x1="582.2368514329801" y1="517.540794312393" x2="636.5296235830465" y2="514.6935007350806" stroke="#000" fill="none"/><line x1="582.2368514329801" y1="517.540794312393" x2="636.5296235830465" y2="514.6935007350806" stroke="#000" fill="none" stroke-width="2.0"/><line x1="636.5296235830465" y1="514.6935007350806" x2="698.6186640449923" y2="466.9553940378402" stroke="#000" fill="none"/><line x1="636.5296235830465" y1="514.6935007350806" x2="699.9362387768581" y2="492.24809417511665" stroke="#000" fill="none" stroke-width="2.0"/><line x1="698.6186640449923" y1="466.9553940378402" x2="789.3688914603433" y2="509.4676123189105" stroke="#000" fill="none"/><line x1="699.9362387768581" y1="492.24809417511665" x2="789.3688914603433" y2="509.4676123189105" stroke="#000" fill="none" stroke-width="2.0"/><line x1="789.3688914603433" y1="509.4676123189105" x2="811.665692488707" y2="466.96694630572296" stroke="#000" fill="none"/><line x1="789.3688914603433" y1="509.4676123189105" x2="836.7339566349134" y2="492.253870309058" stroke="#000" fill="none" stroke-width="2.0"/><circle cx="540.7054062363281" cy="185.66371630458536" r="5.0" stroke="#000" fill="#ffa500"/><circle cx="540.7054062363281" cy="185.66371630458536" r="7.0" stroke="#000" fill="#8b0000"/><circle cx="606.6915043354659" cy="224.14842761822183" r="5.0" stroke="#000" fill="#ffa500"/><circle cx="606.6915043354659" cy="224.14842761822183" r="7.0" stroke="#000" fill="#8b0000"/><circle cx="693.086562763253" cy="198.3971385774289" r="5.0" stroke="#000" fill="#ffa500"/><circle cx="693.086562763253" cy="198.3971385774289" r="7.0" stroke="#000" fill="#8b0000"/><circle cx="762.2314216251517" cy="234.99662455254636" r="5.0" stroke="#000" fill="#ffa500"/><circle cx="762.2314216251517" cy="234.99662455254636" r="7.0" stroke="#000" fill="#8b0000"/><circle cx="821.8652547742653" cy="189.85151804628944" r="5.0" stroke="#000" fill="#ff0"/><circle cx="821.8652547742653" cy="189.85151804628944" r="5.0" stroke="#000" fill="#f00"/><ellipse cx="564.3846586369514" cy="251.09788639058365" rx="5.0" ry="4.999999999999986" stroke="#000" fill="#ffa500"/><ellipse cx="564.3846586369514" cy="251.09788639058365" rx="7.0" ry="6.999999999999986" stroke="#000" fill="#8b0000"/><circle cx="621.2392671088934" cy="255.1353517456891" r="5.0" stroke="#000" fill="#ffa500"/><circle cx="602.3654552767614" cy="246.0870561671642" r="7.0" stroke="#000" fill="#8b0000"/><circle cx="712.8503901859008" cy="258.1591869501372" r="5.0" stroke="#000" fill="#ffa500"/><ellipse cx="725.4612503825754" cy="251.95715119447823" rx="7.0" ry="6.999999999999986" stroke="#000" fill="#8b0000"/><ellipse cx="793.7377035734609" cy="255.25086899839778" rx="5.0" ry="4.999999999999986" stroke="#000" fill="#ffa500"/><circle cx="792.4468177565578" cy="259.9862000420233" r="7.0" stroke="#000" fill="#8b0000"/><circle cx="850.2324687990506" cy="258.8348691662977" r="5.0" stroke="#000" fill="#ff0"/><circle cx="850.2324687990506" cy="258.8348691662977" r="5.0" stroke="#000" fill="#f00"/><circle cx="549.2308861340075" cy="376.0491341679961" r="5.0" stroke="#000" fill="#ffa500"/><circle cx="549.2308861340075" cy="376.0491341679961" r="7.0" stroke="#000" fill="#8b0000"/><circle cx="609.0912713406597" cy="355.41993327086806" r="5.0" stroke="#000" fill="#ffa500"/><circle cx="626.3133857234026" cy="395.5626650861424" r="7.0" stroke="#000" fill="#8b0000"/><circle cx="714.6084890662297" cy="377.35122974437263" r="5.0" stroke="#000" fill="#ffa500"/><circle cx="702.0858750661839" cy="372.3527813624122" r="7.0" stroke="#000" fill="#8b0000"/><circle cx="754.3135572967003" cy="358.99520477406895" r="5.0" stroke="#000" fill="#ffa500"/><circle cx="757.8368060802787" cy="368.67921608896546" r="7.0" stroke="#000" fill="#8b0000"/><circle cx="820.0177229973782" cy="358.74984391861386" r="5.0" stroke="#000" fill="#ff0"/><circle cx="820.0177229973782" cy="358.74984391861386" r="5.0" stroke="#000" fill="#f00"/><circle cx="564.2720244704427" cy="401.14450108746945" r="5.0" stroke="#000" fill="#ffa500"/><circle cx="564.2720244704427" cy="401.14450108746945" r="7.0" stroke="#000" fill="#8b0000"/><circle cx="634.5873385939572" cy="397.30436791745205" r="5.0" stroke="#000" fill="#ffa500"/><circle cx="634.4127673131812" cy="440.3441706330486" r="7.0" stroke="#000" fill="#8b0000"/><circle cx="706.8205356947038" cy="413.005858266804" r="5.0" stroke="#000" fill="#ffa500"/><circle cx="736.2327263511194" cy="443.81329076822317" r="7.0" stroke="#000" fill="#8b0000"/><circle cx="743.0123478138582" cy="448.61727673424434" r="5.0" stroke="#000" fill="#ffa500"/><circle cx="777.7337660652388" cy="455.2366645802249" r="7.0" stroke="#000" fill="#8b0000"/><circle cx="861.8022207811198" cy="407.31750711599585" r="5.0" stroke="#000" fill="#ff0"/><circle cx="861.8022207811198" cy="407.31750711599585" r="5.0" stroke="#000" fill="#f00"/><circle cx="582.2368514329801" cy="517.540794312393" r="5.0" stroke="#000" fill="#ff0"/><circle cx="582.2368514329801" cy="517.540794312393" r="5.0" stroke="#000" fill="#f00"/><circle cx="636.5296235830465" cy="514.6935007350806" r="5.0" stroke="#000" fill="#ff0"/><circle cx="636.5296235830465" cy="514.6935007350806" r="5.0" stroke="#000" fill="#f00"/><circle cx="698.6186640449923" cy="466.9553940378402" r="5.0" stroke="#000" fill="#ff0"/><circle cx="699.9362387768581" cy="492.24809417511665" r="5.0" stroke="#000" fill="#f00"/><circle cx="789.3688914603433" cy="509.4676123189105" r="5.0" stroke="#000" fill="#ff0"/><circle cx="789.3688914603433" cy="509.4676123189105" r="5.0" stroke="#000" fill="#f00"/><circle cx="811.665692488707" cy="466.96694630572296" r="5.0" stroke="#000" fill="#ff0"/><circle cx="836.7339566349134" cy="492.253870309058" r="5.0" stroke="#000" fill="#f00"/></svg>