<?xml version="1.0" ?><!DOCTYPE svg  PUBLIC '-//W3C//DTD SVG 1.1//EN'  'http://www.w3.org/Graphics/SVG/1.1/DTD/svg11.dtd'><svg xmlns="http://www.w3.org/2000/svg" width="1360.000" height="598.000" viewBox="20.000 89.000 1360.000 598.000"><text x="700.0" y="673" fill="#000" stroke-width="0.0" text-anchor="middle" font-family=".AppleSystemUIFont" font-size="20.0pt">Yellow=Target Mesh, Red=Current Mesh, Dark Red=Subgrid of current mesh, Orange=Subgrid of target mesh</text><line x1="540.7054062363281" y1="185.66371630458536" x2="606.6915043354659" y2="224.14842761822183" stroke="#000" fill="none"/><line x1="540.7054062363281" y1="185.66371630458536" x2="606.6915043354659" y2="224.14842761822183" stroke="#000" fill="none" stroke-width="2.0"/><line x1="540.7054062363281" y1="185.66371630458536" x2="564.3846586369514" y2="251.09788639058368" stroke="#000" fill="none"/><line x1="540.7054062363281" y1="185.66371630458536" x2="564.3846586369514" y2="251.09788639058368" stroke="#000" fill="none" stroke-width="2.0"/><line x1="606.6915043354659" y1="224.14842761822183" x2="693.086562763253" y2="198.3971385774289" stroke="#000" fill="none"/><line x1="606.6915043354659" y1="224.14842761822183" x2="693.086562763253" y2="198.3971385774289" stroke="#000" fill="none" stroke-width="2.0"/><line x1="606.6915043354659" y1="224.14842761822183" x2="621.2392671088934" y2="255.1353517456891" stroke="#000" fill="none"/><line x1="606.6915043354659" y1="224.14842761822183" x2="615.1188331204512" y2="258.81810566086705" stroke="#000" fill="none" stroke-width="2.0"/><line x1="693.086562763253" y1="198.3971385774289" x2="762.2314216251517" y2="234.99662455254636" stroke="#000" fill="none"/><line x1="693.086562763253" y1="198.3971385774289" x2="762.2314216251517" y2="234.99662455254636" stroke="#000" fill="none" stroke-width="2.0"/><line x1="693.086562763253" y1="198.3971385774289" x2="712.8503901859008" y2="258.1591869501372" stroke="#000" fill="none"/><line x1="693.086562763253" y1="198.3971385774289" x2="708.7238979440519" y2="255.4427577319306" stroke="#000" fill="none" stroke-width="2.0"/><line x1="762.2314216251517" y1="234.99662455254636" x2="821.8652547742653" y2="189.85151804628944" stroke="#000" fill="none"/><line x1="762.2314216251517" y1="234.99662455254636" x2="821.8652547742653" y2="189.85151804628944" stroke="#000" fill="none" stroke-width="2.0"/><line x1="762.2314216251517" y1="234.99662455254636" x2="793.7377035734609" y2="255.2508689983978" stroke="#000" fill="none"/><line x1="762.2314216251517" y1="234.99662455254636" x2="794.0188981767169" y2="256.8319706396285" stroke="#000" fill="none" stroke-width="2.0"/><line x1="821.8652547742653" y1="189.85151804628944" x2="850.2324687990506" y2="258.8348691662977" stroke="#000" fill="none"/><line x1="821.8652547742653" y1="189.85151804628944" x2="850.2324687990506" y2="258.8348691662977" stroke="#000" fill="none" stroke-width="2.0"/><line x1="564.3846586369514" y1="251.09788639058368" x2="621.2392671088934" y2="255.1353517456891" stroke="#000" fill="none"/><line x1="564.3846586369514" y1="251.09788639058368" x2="615.1188331204512" y2="258.81810566086705" stroke="#000" fill="none" stroke-width="2.0"/><line x1="564.3846586369514" y1="251.09788639058368" x2="549.2308861340075" y2="376.0491341679961" stroke="#000" fill="none"/><line x1="564.3846586369514" y1="251.09788639058368" x2="549.2308861340075" y2="376.0491341679961" stroke="#000" fill="none" stroke-width="2.0"/><line x1="621.2392671088934" y1="255.1353517456891" x2="712.8503901859008" y2="258.1591869501372" stroke="#000" fill="none"/><line x1="615.1188331204512" y1="258.81810566086705" x2="708.7238979440519" y2="255.4427577319306" stroke="#000" fill="none" stroke-width="2.0"/><line x1="621.2392671088934" y1="255.1353517456891" x2="609.0912713406597" y2="355.41993327086806" stroke="#000" fill="none"/><line x1="615.1188331204512" y1="258.81810566086705" x2="614.6152915045138" y2="359.28685934277763" stroke="#000" fill="none" stroke-width="2.0"/><line x1="712.8503901859008" y1="258.1591869501372" x2="793.7377035734609" y2="255.2508689983978" stroke="#000" fill="none"/><line x1="708.7238979440519" y1="255.4427577319306" x2="794.0188981767169" y2="256.8319706396285" stroke="#000" fill="none" stroke-width="2.0"/><line x1="712.8503901859008" y1="258.1591869501372" x2="714.6084890662297" y2="377.35122974437263" stroke="#000" fill="none"/><line x1="708.7238979440519" y1="255.4427577319306" x2="709.3236020843983" y2="387.1717145514361" stroke="#000" fill="none" stroke-width="2.0"/><line x1="793.7377035734609" y1="255.2508689983978" x2="850.2324687990506" y2="258.8348691662977" stroke="#000" fill="none"/><line x1="794.0188981767169" y1="256.8319706396285" x2="850.2324687990506" y2="258.8348691662977" stroke="#000" fill="none" stroke-width="2.0"/><line x1="793.7377035734609" y1="255.2508689983978" x2="754.3135572967003" y2="358.99520477406895" stroke="#000" fill="none"/><line x1="794.0188981767169" y1="256.8319706396285" x2="749.0143124032509" y2="348.7061981161818" stroke="#000" fill="none" stroke-width="2.0"/><line x1="850.2324687990506" y1="258.8348691662977" x2="820.0177229973782" y2="358.74984391861386" stroke="#000" fill="none"/><line x1="850.2324687990506" y1="258.8348691662977" x2="820.0177229973782" y2="358.74984391861386" stroke="#000" fill="none" stroke-width="2.0"/><line x1="549.2308861340075" y1="376.0491341679961" x2="609.0912713406597" y2="355.41993327086806" stroke="#000" fill="none"/><line x1="549.2308861340075" y1="376.0491341679961" x2="614.6152915045138" y2="359.28685934277763" stroke="#000" fill="none" stroke-width="2.0"/><line x1="549.2308861340075" y1="376.0491341679961" x2="564.2720244704427" y2="401.14450108746945" stroke="#000" fill="none"/><line x1="549.2308861340075" y1="376.0491341679961" x2="564.2720244704427" y2="401.14450108746945" stroke="#000" fill="none" stroke-width="2.0"/><line x1="609.0912713406597" y1="355.41993327086806" x2="714.6084890662297" y2="377.35122974437263" stroke="#000" fill="none"/><line x1="614.6152915045138" y1="359.28685934277763" x2="709.3236020843983" y2="387.1717145514361" stroke="#000" fill="none" stroke-width="2.0"/><line x1="609.0912713406597" y1="355.41993327086806" x2="634.5873385939572" y2="397.30436791745205" stroke="#000" fill="none"/><line x1="614.6152915045138" y1="359.28685934277763" x2="637.6384384381353" y2="400.5681666249371" stroke="#000" fill="none" stroke-width="2.0"/><line x1="714.6084890662297" y1="377.35122974437263" x2="754.3135572967003" y2="358.99520477406895" stroke="#000" fill="none"/><line x1="709.3236020843983" y1="387.1717145514361" x2="749.0143124032509" y2="348.7061981161818" stroke="#000" fill="none" stroke-width="2.0"/><line x1="714.6084890662297" y1="377.35122974437263" x2="706.8205356947038" y2="413.005858266804" stroke="#000" fill="none"/><line x1="709.3236020843983" y1="387.1717145514361" x2="732.2945001243994" y2="430.3361802382414" stroke="#000" fill="none" stroke-width="2.0"/><line x1="754.3135572967003" y1="358.99520477406895" x2="820.0177229973782" y2="358.74984391861386" stroke="#000" fill="none"/><line x1="749.0143124032509" y1="348.7061981161818" x2="820.0177229973782" y2="358.74984391861386" stroke="#000" fill="none" stroke-width="2.0"/><line x1="754.3135572967003" y1="358.99520477406895" x2="743.0123478138582" y2="448.61727673424434" stroke="#000" fill="none"/><line x1="749.0143124032509" y1="348.7061981161818" x2="758.5404942360115" y2="446.4170415153959" stroke="#000" fill="none" stroke-width="2.0"/><line x1="820.0177229973782" y1="358.74984391861386" x2="861.8022207811198" y2="407.31750711599585" stroke="#000" fill="none"/><line x1="820.0177229973782" y1="358.74984391861386" x2="861.8022207811198" y2="407.31750711599585" stroke="#000" fill="none" stroke-width="2.0"/><line x1="564.2720244704427" y1="401.14450108746945" x2="634.5873385939572" y2="397.30436791745205" stroke="#000" fill="none"/><line x1="564.2720244704427" y1="401.14450108746945" x2="637.6384384381353" y2="400.5681666249371" stroke="#000" fill="none" stroke-width="2.0"/><line x1="564.2720244704427" y1="401.14450108746945" x2="582.2368514329801" y2="517.540794312393" stroke="#000" fill="none"/><line x1="564.2720244704427" y1="401.14450108746945" x2="582.2368514329801" y2="517.540794312393" stroke="#000" fill="none" stroke-width="2.0"/><line x1="634.5873385939572" y1="397.30436791745205" x2="706.8205356947038" y2="413.005858266804" stroke="#000" fill="none"/><line x1="637.6384384381353" y1="400.5681666249371" x2="732.2945001243994" y2="430.3361802382414" stroke="#000" fill="none" stroke-width="2.0"/><line x1="634.5873385939572" y1="397.30436791745205" x2="636.5296235830465" y2="514.6935007350806" stroke="#000" fill="none"/><line x1="637.6384384381353" y1="400.5681666249371" x2="636.5296235830465" y2="514.6935007350806" stroke="#000" fill="none" stroke-width="2.0"/><line x1="706.8205356947038" y1="413.005858266804" x2="743.0123478138582" y2="448.61727673424434" stroke="#000" fill="none"/><line x1="732.2945001243994" y1="430.3361802382414" x2="758.5404942360115" y2="446.4170415153959" stroke="#000" fill="none" stroke-width="2.0"/><line x1="706.8205356947038" y1="413.005858266804" x2="698.6186640449923" y2="466.9553940378402" stroke="#000" fill="none"/><line x1="732.2945001243994" y1="430.3361802382414" x2="698.6186640449923" y2="466.9553940378402" stroke="#000" fill="none" stroke-width="2.0"/><line x1="743.0123478138582" y1="448.61727673424434" x2="861.8022207811198" y2="407.31750711599585" stroke="#000" fill="none"/><line x1="758.5404942360115" y1="446.4170415153959" x2="861.8022207811198" y2="407.31750711599585" stroke="#000" fill="none" stroke-width="2.0"/><line x1="743.0123478138582" y1="448.61727673424434" x2="789.3688914603433" y2="509.4676123189105" stroke="#000" fill="none"/><line x1="758.5404942360115" y1="446.4170415153959" x2="789.3688914603433" y2="509.4676123189105" stroke="#000" fill="none" stroke-width="2.0"/><line x1="861.8022207811198" y1="407.31750711599585" x2="811.665692488707" y2="466.96694630572296" stroke="#000" fill="none"/><line x1="861.8022207811198" y1="407.31750711599585" x2="820.3755845843824" y2="475.7528111033828" stroke="#000" fill="none" stroke-width="2.0"/><line x1="582.2368514329801" y1="517.540794312393" x2="636.5296235830465" y2="514.6935007350806" stroke="#000" fill="none"/><line x1="582.2368514329801" y1="517.540794312393" x2="636.5296235830465" y2="514.6935007350806" stroke="#000" fill="none" stroke-width="2.0"/><line x1="636.5296235830465" y1="514.6935007350806" x2="698.6186640449923" y2="466.9553940378402" stroke="#000" fill="none"/><line x1="636.5296235830465" y1="514.6935007350806" x2="698.6186640449923" y2="466.9553940378402" stroke="#000" fill="none" stroke-width="2.0"/><line x1="698.6186640449923" y1="466.9553940378402" x2="789.3688914603433" y2="509.4676123189105" stroke="#000" fill="none"/><line x1="698.6186640449923" y1="466.9553940378402" x2="789.3688914603433" y2="509.4676123189105" stroke="#000" fill="none" stroke-width="2.0"/><line x1="789.3688914603433" y1="509.4676123189105" x2="811.665692488707" y2="466.96694630572296" stroke="#000" fill="none"/><line x1="789.3688914603433" y1="509.4676123189105" x2="820.3755845843824" y2="475.7528111033828" stroke="#000" fill="none" stroke-width="2.0"/><circle cx="540.7054062363281" cy="185.66371630458536" r="5.0" stroke="#000" fill="#ff0"/><circle cx="540.7054062363281" cy="185.66371630458536" r="5.0" stroke="#000" fill="#f00"/><circle cx="606.6915043354659" cy="224.14842761822183" r="5.0" stroke="#000" fill="#ffa500"/><circle cx="606.6915043354659" cy="224.14842761822183" r="7.0" stroke="#000" fill="#8b0000"/><circle cx="693.086562763253" cy="198.3971385774289" r="5.0" stroke="#000" fill="#ffa500"/><circle cx="693.086562763253" cy="198.3971385774289" r="7.0" stroke="#000" fill="#8b0000"/><circle cx="762.2314216251517" cy="234.99662455254636" r="5.0" stroke="#000" fill="#ffa500"/><circle cx="762.2314216251517" cy="234.99662455254636" r="7.0" stroke="#000" fill="#8b0000"/><circle cx="821.8652547742653" cy="189.85151804628944" r="5.0" stroke="#000" fill="#ffa500"/><circle cx="821.8652547742653" cy="189.85151804628944" r="7.0" stroke="#000" fill="#8b0000"/><ellipse cx="564.3846586369514" cy="251.09788639058365" rx="5.0" ry="4.999999999999986" stroke="#000" fill="#ff0"/><ellipse cx="564.3846586369514" cy="251.09788639058365" rx="5.0" ry="4.999999999999986" stroke="#000" fill="#f00"/><circle cx="621.2392671088934" cy="255.1353517456891" r="5.0" stroke="#000" fill="#ffa500"/><circle cx="615.1188331204512" cy="258.81810566086705" r="7.0" stroke="#000" fill="#8b0000"/><circle cx="712.8503901859008" cy="258.1591869501372" r="5.0" stroke="#000" fill="#ffa500"/><circle cx="708.7238979440519" cy="255.4427577319306" r="7.0" stroke="#000" fill="#8b0000"/><ellipse cx="793.7377035734609" cy="255.25086899839778" rx="5.0" ry="4.999999999999986" stroke="#000" fill="#ffa500"/><circle cx="794.0188981767169" cy="256.8319706396285" r="7.0" stroke="#000" fill="#8b0000"/><circle cx="850.2324687990506" cy="258.8348691662977" r="5.0" stroke="#000" fill="#ffa500"/><circle cx="850.2324687990506" cy="258.8348691662977" r="7.0" stroke="#000" fill="#8b0000"/><circle cx="549.2308861340075" cy="376.0491341679961" r="5.0" stroke="#000" fill="#ff0"/><circle cx="549.2308861340075" cy="376.0491341679961" r="5.0" stroke="#000" fill="#f00"/><circle cx="609.0912713406597" cy="355.41993327086806" r="5.0" stroke="#000" fill="#ffa500"/><circle cx="614.6152915045138" cy="359.28685934277763" r="7.0" stroke="#000" fill="#8b0000"/><circle cx="714.6084890662297" cy="377.35122974437263" r="5.0" stroke="#000" fill="#ffa500"/><circle cx="709.3236020843983" cy="387.1717145514361" r="7.0" stroke="#000" fill="#8b0000"/><circle cx="754.3135572967003" cy="358.99520477406895" r="5.0" stroke="#000" fill="#ffa500"/><circle cx="749.0143124032509" cy="348.7061981161818" r="7.0" stroke="#000" fill="#8b0000"/><circle cx="820.0177229973782" cy="358.74984391861386" r="5.0" stroke="#000" fill="#ffa500"/><circle cx="820.0177229973782" cy="358.74984391861386" r="7.0" stroke="#000" fill="#8b0000"/><circle cx="564.2720244704427" cy="401.14450108746945" r="5.0" stroke="#000" fill="#ff0"/><circle cx="564.2720244704427" cy="401.14450108746945" r="5.0" stroke="#000" fill="#f00"/><circle cx="634.5873385939572" cy="397.30436791745205" r="5.0" stroke="#000" fill="#ffa500"/><circle cx="637.6384384381353" cy="400.5681666249371" r="7.0" stroke="#000" fill="#8b0000"/><circle cx="706.8205356947038" cy="413.005858266804" r="5.0" stroke="#000" fill="#ffa500"/><circle cx="732.2945001243994" cy="430.3361802382414" r="7.0" stroke="#000" fill="#8b0000"/><circle cx="743.0123478138582" cy="448.61727673424434" r="5.0" stroke="#000" fill="#ffa500"/><circle cx="758.5404942360115" cy="446.4170415153959" r="7.0" stroke="#000" fill="#8b0000"/><circle cx="861.8022207811198" cy="407.31750711599585" r="5.0" stroke="#000" fill="#ffa500"/><circle cx="861.8022207811198" cy="407.31750711599585" r="7.0" stroke="#000" fill="#8b0000"/><circle cx="582.2368514329801" cy="517.540794312393" r="5.0" stroke="#000" fill="#ff0"/><circle cx="582.2368514329801" cy="517.540794312393" r="5.0" stroke="#000" fill="#f00"/><circle cx="636.5296235830465" cy="514.6935007350806" r="5.0" stroke="#000" fill="#ff0"/><circle cx="636.5296235830465" cy="514.6935007350806" r="5.0" stroke="#000" fill="#f00"/><circle cx="698.6186640449923" cy="466.9553940378402" r="5.0" stroke="#000" fill="#ff0"/><circle cx="698.6186640449923" cy="466.9553940378402" r="5.0" stroke="#000" fill="#f00"/><circle cx="789.3688914603433" cy="509.4676123189105" r="5.0" stroke="#000" fill="#ff0"/><circle cx="789.3688914603433" cy="509.4676123189105" r="5.0" stroke="#000" fill="#f00"/><circle cx="811.665692488707" cy="466.96694630572296" r="5.0" stroke="#000" fill="#ff0"/><circle cx="820.3755845843824" cy="475.7528111033828" r="5.0" stroke="#000" fill="#f00"/><text x="233.33333333333334" y="598" fill="#000" stroke-width="0.0" text-anchor="middle" font-family=".AppleSystemUIFont" font-size="20.0pt">Cone #1 for GENERATED Mesh</text><text x="233.33333333333334" y="118" fill="#000" stroke-width="0.0" text-anchor="middle" font-family=".AppleSystemUIFont" font-size="20.0pt">TRANSVERSE</text><circle cx="233.33333333333337" cy="350.0" r="200.0" stroke="#000" fill="none"/><line x1="41.66626975701752" y1="407.1291233963248" x2="425.00039690964917" y2="292.8708766036752" stroke="#f00" fill="none" stroke-width="2.0"/><line x1="56.56875687694813" y1="256.4356664631508" x2="410.0979097897185" y2="443.5643335368492" stroke="#f00" fill="none" stroke-width="2.0"/><line x1="73.87367559480722" y1="470.71709718971914" x2="392.79299107185943" y2="229.28290281028086" stroke="#f00" fill="none" stroke-width="2.0"/><line x1="33.46323511816823" y1="357.2072074661582" x2="433.20343154849843" y2="342.7927925338418" stroke="#f00" fill="none" stroke-width="2.0"/><line x1="33.35985519932393" y1="346.74300092311137" x2="433.30681146734275" y2="353.25699907688863" stroke="#f00" fill="none" stroke-width="2.0"/><line x1="33.46016341879988" y1="342.8784869363292" x2="433.2065032478668" y2="357.1215130636708" stroke="#f00" fill="none" stroke-width="2.0"/><line x1="41.47640139574574" y1="293.5117917836309" x2="425.1902652709209" y2="406.4882082163691" stroke="#f00" fill="none" stroke-width="2.0"/><line x1="89.71267124008423" y1="489.1873033717399" x2="376.9539954265824" y2="210.81269662826008" stroke="#f00" fill="none" stroke-width="2.0"/><line x1="35.30469379622792" y1="321.9882538373067" x2="431.36197287043876" y2="378.0117461626933" stroke="#f00" fill="none" stroke-width="2.0"/><line x1="42.54552729172329" y1="289.9998911181906" x2="424.12113937494337" y2="410.0001088818094" stroke="#f00" fill="none" stroke-width="2.0"/><line x1="62.79747193524142" y1="245.51306312648086" x2="403.8691947314253" y2="454.48693687351914" stroke="#f00" fill="none" stroke-width="2.0"/><line x1="46.29259189606179" y1="420.82203783142467" x2="420.3740747706049" y2="279.17796216857533" stroke="#f00" fill="none" stroke-width="2.0"/><line x1="280.57276153491256" y1="544.3410312393855" x2="186.09390513175416" y2="155.6589687606144" stroke="#00f" fill="none"/><line x1="286.20677658686293" y1="542.8844187551597" x2="180.45989007980373" y2="157.11558124484034" stroke="#00f" fill="none"/><line x1="398.1866022255747" y1="463.24045096846964" x2="68.48006444109203" y2="236.75954903153036" stroke="#00f" fill="none"/><line x1="309.3968633999956" y1="534.9711853067877" x2="157.2698032666711" y2="165.02881469321238" stroke="#00f" fill="none"/><line x1="232.3309614051871" y1="549.9974881105202" x2="234.33570526147957" y2="150.00251188947982" stroke="#00f" fill="none"/><line x1="234.24383614189432" y1="549.9979274508504" x2="232.42283052477237" y2="150.00207254914963" stroke="#00f" fill="none"/><line x1="145.35201671294277" y1="529.6087078227072" x2="321.3146499537239" y2="170.39129217729285" stroke="#00f" fill="none"/><line x1="175.44157671644106" y1="541.4380957798382" x2="291.22508995022565" y2="158.56190422016178" stroke="#00f" fill="none"/><line x1="330.7498344728991" y1="524.6711919743063" x2="135.91683219376756" y2="175.3288080256937" stroke="#00f" fill="none"/><line x1="327.2912385878735" y1="526.5556910444375" x2="139.37542807879316" y2="173.44430895556255" stroke="#00f" fill="none"/><line x1="252.74004096273788" y1="549.056222457342" x2="213.9266257039288" y2="150.94377754265804" stroke="#00f" fill="none"/><line x1="363.7704478983236" y1="501.6118700628668" x2="102.89621876834312" y2="198.38812993713321" stroke="#00f" fill="none"/><text x="1166.6666666666667" y="598" fill="#000" stroke-width="0.0" text-anchor="middle" font-family=".AppleSystemUIFont" font-size="20.0pt">Cone #1 for TARGET Mesh</text><text x="1166.6666666666667" y="118" fill="#f00" stroke-width="0.0" text-anchor="middle" font-family=".AppleSystemUIFont" font-size="20.0pt">NOT TRANSVERSE</text><circle cx="1166.6666666666667" cy="350.0" r="200.0" stroke="#000" fill="none"/><line x1="974.9996030903509" y1="407.1291233963248" x2="1358.3337302429825" y2="292.8708766036752" stroke="#f00" fill="none" stroke-width="2.0"/><line x1="989.9020902102816" y1="256.4356664631508" x2="1343.431243123052" y2="443.5643335368492" stroke="#f00" fill="none" stroke-width="2.0"/><line x1="1007.2070089281406" y1="470.71709718971914" x2="1326.126324405193" y2="229.28290281028086" stroke="#f00" fill="none" stroke-width="2.0"/><line x1="966.7755258654585" y1="343.4021344973153" x2="1366.5578074678751" y2="356.5978655026847" stroke="#f00" fill="none" stroke-width="2.0"/><line x1="966.795818956875" y1="357.1863924029545" x2="1366.5375143764586" y2="342.8136075970455" stroke="#f00" fill="none" stroke-width="2.0"/><line x1="967.0679130688976" y1="337.3375530715014" x2="1366.2654202644358" y2="362.6624469284986" stroke="#f00" fill="none" stroke-width="2.0"/><line x1="970.8515373881363" y1="309.3006738921586" x2="1362.481795945197" y2="390.6993261078414" stroke="#f00" fill="none" stroke-width="2.0"/><line x1="985.1280753570593" y1="433.92699128006035" x2="1348.2052579762742" y2="266.07300871993965" stroke="#f00" fill="none" stroke-width="2.0"/><line x1="966.6680611720719" y1="350.7468602395399" x2="1366.6652721612616" y2="349.2531397604601" stroke="#f00" fill="none" stroke-width="2.0"/><line x1="971.2306196495322" y1="307.51763275997496" x2="1362.1027136838013" y2="392.48236724002504" stroke="#f00" fill="none" stroke-width="2.0"/><line x1="1024.1068426964907" y1="209.72635105055403" x2="1309.2264906368428" y2="490.27364894944594" stroke="#f00" fill="none" stroke-width="2.0"/><line x1="977.7582066018529" y1="415.67795456574913" x2="1355.5751267314806" y2="284.32204543425087" stroke="#f00" fill="none" stroke-width="2.0"/><line x1="1251.6618823625822" y1="531.0409161178898" x2="1081.6714509707513" y2="168.95908388211024" stroke="#00f" fill="none"/><line x1="1229.463495518489" y1="539.885645287249" x2="1103.8698378148445" y2="160.11435471275107" stroke="#00f" fill="none"/><line x1="1334.9018612631237" y1="458.15229678140093" x2="998.4314720702097" y2="241.84770321859907" stroke="#00f" fill="none"/><line x1="1242.730196733329" y1="534.9711853067877" x2="1090.6031366000045" y2="165.02881469321238" stroke="#00f" fill="none"/><line x1="1142.6154389740593" y1="548.5485795629834" x2="1190.7178943592742" y2="151.4514204370166" stroke="#00f" fill="none"/><line x1="1169.6163730708708" y1="549.9782468973287" x2="1163.7169602624626" y2="150.0217531026712" stroke="#00f" fill="none"/><line x1="1095.62106951544" y1="536.9559389947952" x2="1237.7122638178935" y2="163.04406100520475" stroke="#00f" fill="none"/><line x1="1108.7749100497745" y1="541.4380957798382" x2="1224.558423283559" y2="158.56190422016178" stroke="#00f" fill="none"/><line x1="1270.6596094641245" y1="520.8375481219649" x2="1062.673723869209" y2="179.16245187803506" stroke="#00f" fill="none"/><line x1="1123.9874191267243" y1="545.3931468333122" x2="1209.3459142066092" y2="154.60685316668776" stroke="#00f" fill="none"/><line x1="1141.6451124484272" y1="548.4286315643579" x2="1191.6882208849063" y2="151.57136843564209" stroke="#00f" fill="none"/><line x1="1297.103781231657" y1="501.6118700628668" x2="1036.2295521016765" y2="198.38812993713321" stroke="#00f" fill="none"/></svg>